<svg xmlns:xlink="http://www.w3.org/1999/xlink" xmlns="http://www.w3.org/2000/svg" class="g-header__logo-svg" viewBox="0 0 194.8 44.5" width="194.8"  height="44.5" ><path class="g-header__logo-path" d="M90.1,3h0.2c5.4,0.1,6.3,0.8,6.3,4.7V33l-32-32.8l-0.1-0.1h-0.9v37.4c0,2.6-0.9,4.2-5.3,4.2h-0.5v1.8H74v-1.8h-0.3 c-5.6,0-6.5-0.8-6.5-5.6V11.4l32.1,33l0.1,0.1h0.9V6.2c0-2.2,0.6-3.2,5.9-3.2h0.3V1.2H90.1V3z" fill="#212721"></path><path class="g-header__logo-path" d="M45.2,41.7c-3.3,0-4.4-0.7-5.9-4L23.1,0.2L23,0h-0.6L7.3,35.3c-2.4,5.8-2.8,6.4-7,6.5H0v1.8h16.1v-1.8h-1.3 c-3.7,0-5.2-0.6-5.2-2.2c0.2-1.1,0.5-2.2,1-3.3c0.1-0.3,0.2-0.6,0.3-0.9l2.4-5.5h16.3l3.1,7.1l0.1,0.2c0.4,0.8,0.6,1.6,0.6,2.4 c0,1.6-1.1,2-5,2h-2v1.8h19v-1.8h-0.2V41.7z M14.8,26.5l6.6-15l6.6,15H14.8z" fill="#212721"></path><path class="g-header__logo-path" d="M194.6,3h0.3V1.2H178V3h0.2c3.8,0.2,4.8,1.2,4.8,4.6v28.6c0,4.4-0.8,5.3-4.8,5.5H178v1.8h16.9v-1.8h-0.3c-4,0-5.5-0.8-5.5-5 V8.2C189.1,3.8,190.6,3,194.6,3z" fill="#212721"></path><path class="g-header__logo-path" d="M156.1,37.7L139.9,0.2V0h-0.6l-15.2,35.3c-2.4,5.8-2.8,6.4-7,6.5h-0.2v1.8H133v-1.8h-1.3c-3.7,0-5.2-0.6-5.2-2.2 c0.2-1.1,0.5-2.2,1-3.3c0.1-0.3,0.2-0.6,0.3-0.9l2.4-5.5h16.3l3.2,7.1l0.1,0.2c0.4,0.8,0.6,1.6,0.6,2.4c0,1.6-1.1,2-5,2h-2v1.8h19 v-1.8H162C158.7,41.8,157.6,41,156.1,37.7z M144.9,26.5h-13.3l6.6-15L144.9,26.5z" fill="#212721"></path></svg>